<?xml version="1.0" encoding="iso-8859-1"?>
<!-- Generator: Adobe Illustrator 19.0.0, SVG Export Plug-In . SVG Version: 6.00 Build 0)  -->
<svg version="1.1" id="Capa_1" xmlns="http://www.w3.org/2000/svg" xmlns:xlink="http://www.w3.org/1999/xlink" x="0px" y="0px"
	 viewBox="0 0 480 480" style="enable-background:new 0 0 480 480;" xml:space="preserve">
<g>
	<g>
		<path d="M472,384h-16V160c-0.084-70.658-57.342-127.916-128-128h-64v-8c0-13.255-10.745-24-24-24s-24,10.745-24,24v8h-64
			C81.342,32.084,24.084,89.342,24,160v224H8c-4.418,0-8,3.582-8,8v32c0,4.418,3.582,8,8,8h20.448
			c-2.879,4.843-4.415,10.366-4.448,16c0,17.673,14.327,32,32,32s32-14.327,32-32c-0.033-5.634-1.569-11.157-4.448-16h312.896
			c-2.879,4.843-4.415,10.366-4.448,16c0,17.673,14.327,32,32,32c17.673,0,32-14.327,32-32c-0.033-5.634-1.569-11.157-4.448-16H472
			c4.418,0,8-3.582,8-8v-32C480,387.582,476.418,384,472,384z M232,24c0-4.418,3.582-8,8-8s8,3.582,8,8v8h-16V24z M40,160
			C40.066,98.172,90.172,48.066,152,48h176c61.828,0.066,111.934,50.172,112,112v224h-32V264c0-4.418-3.582-8-8-8h-24v-8
			c0-13.255-10.745-24-24-24h-88v-40c0-17.673-14.327-32-32-32h-24v-25.472c12.473-4.393,19.023-18.066,14.629-30.539
			C219.249,86.393,210.174,79.981,200,80h-64c-13.224-0.025-23.964,10.675-23.989,23.899c-0.019,10.174,6.393,19.249,15.989,22.629
			V152h-24c-17.673,0-32,14.327-32,32v184c0.033,5.634,1.569,11.157,4.448,16H40V160z M360,320v64H248v-64h-16v64h-16V272h176v112
			h-16v-64H360z M120,304v-16h80v16H120z M200,320v32h-80v-32H200z M112,272c-4.418,0-8,3.582-8,8v80c0,4.418,3.582,8,8,8h88v16h-96
			c-8.837,0-16-7.163-16-16V184c0-8.837,7.163-16,16-16v8c0,13.255,10.745,24,24,24h80c13.255,0,24-10.745,24-24v-8
			c8.837,0,16,7.163,16,16v41.472c-9.555,3.378-15.958,12.394-16,22.528v8h-24c-4.418,0-8,3.582-8,8v8H112z M136,112
			c-4.418,0-8-3.582-8-8s3.582-8,8-8h64c4.418,0,8,3.582,8,8s-3.582,8-8,8H136z M192,128v24h-48v-24H192z M216,168v8
			c0,4.418-3.582,8-8,8h-80c-4.418,0-8-3.582-8-8v-8H216z M256,240h96c4.418,0,8,3.582,8,8v8H248v-8
			C248,243.582,251.582,240,256,240z M56,464c-8.837,0-16-7.163-16-16s7.163-16,16-16s16,7.163,16,16S64.837,464,56,464z M424,464
			c-8.837,0-16-7.163-16-16s7.163-16,16-16s16,7.163,16,16S432.837,464,424,464z M464,416H16v-16h448V416z"/>
	</g>
</g>
<g>
	<g>
		<rect x="232" y="288" width="16" height="16"/>
	</g>
</g>
<g>
	<g>
		<rect x="360" y="288" width="16" height="16"/>
	</g>
</g>
<g>
	<g>
		<rect x="112" y="216" width="16" height="16"/>
	</g>
</g>
<g>
	<g>
		<rect x="144" y="216" width="16" height="16"/>
	</g>
</g>
<g>
</g>
<g>
</g>
<g>
</g>
<g>
</g>
<g>
</g>
<g>
</g>
<g>
</g>
<g>
</g>
<g>
</g>
<g>
</g>
<g>
</g>
<g>
</g>
<g>
</g>
<g>
</g>
<g>
</g>
</svg>
