<?xml version="1.0" encoding="iso-8859-1"?>
<!-- Generator: Adobe Illustrator 19.0.0, SVG Export Plug-In . SVG Version: 6.00 Build 0)  -->
<svg version="1.1" id="Layer_1" xmlns="http://www.w3.org/2000/svg" xmlns:xlink="http://www.w3.org/1999/xlink" x="0px" y="0px"
	 viewBox="0 0 512.001 512.001" style="enable-background:new 0 0 512.001 512.001;" xml:space="preserve">
<path style="fill:#E1E9F2;" d="M196.152,403.854h-2.291c-102.573,0-186.024-83.54-186.024-186.224V45.779
	c0-18.068,14.632-32.716,32.68-32.716s32.68,14.647,32.68,32.716V217.63c0,66.606,54.13,120.794,120.664,120.794h2.291
	c18.049,0,32.68,14.647,32.68,32.715S214.201,403.854,196.152,403.854z"/>
<path style="fill:#B3D2F2;" d="M28.735,217.629V45.779c0-14.408,9.309-26.632,22.231-30.997c-3.282-1.109-6.793-1.719-10.449-1.719
	c-18.049,0-32.68,14.647-32.68,32.716V217.63c0,102.684,83.451,186.225,186.024,186.225h2.291c1.872,0,3.705-0.166,5.492-0.469
	C105.167,396.625,28.735,315.899,28.735,217.629z"/>
<g>
	<path style="fill:#E1E9F2;" d="M504.163,151.145c-0.131,10.828-7.799,28.321-38.846,28.484
		c-11.373,0.054-25.883-2.214-44.304-7.983c-0.153-0.044-0.229-0.076-0.229-0.076c-3.126,0.131-3.486,147.338-143.15,220.402
		c-139.653,73.075-167.094-94.426-28.53-160.25c64.391-30.6,100.143-110.076,105.48-122.693c0.468-1.101,0.708-2.268,0.773-3.468
		c0.109-2.247,0.349-4.515,0.708-6.782c5.479-34.307,37.712-57.688,71.983-52.203c14.826,2.355,33.879,19.259,40.316,25.322
		c1.416,1.33,2.092,3.25,1.83,5.169c-0.196,1.461-0.447,3.37-0.73,5.496c-0.926,7.067-2.102,16.543-2.277,20.306
		c-0.032,0.73,0.131,1.462,0.49,2.094C476.025,119.476,504.304,140.229,504.163,151.145z"/>
	<path style="fill:#E1E9F2;" d="M363.494,260.121l71.924,171.575c0.224,0.535,0.34,1.109,0.34,1.688v18.986
		c0,0.983,0.331,1.937,0.941,2.707l5.242,6.629c1.716,2.17,1.005,5.371-1.468,6.609l-17.825,8.921
		c-1.476,0.739-2.408,2.25-2.408,3.902v6.974c0,2.41,1.951,4.362,4.357,4.362h37.338c2.406,0,4.357-1.953,4.357-4.362v-73.007
		c0-0.423-0.062-0.844-0.183-1.25l-63.891-213.868L363.494,260.121z"/>
</g>
<path style="fill:#B3D2F2;" d="M442.531,488.111v-6.976c0-1.651,15.518-27.474,15.518-27.474c0-0.58-0.116-21.432-0.34-21.966
	l-72.983-172.957c-3.418-8.099-14.509-9.059-19.268-1.67l0,0c-1.23,1.909-1.44,4.302-0.562,6.397l70.522,168.229
	c0.225,0.535,0.34,1.109,0.34,1.689v18.986c0,0.982,0.331,1.936,0.941,2.707l5.242,6.629c1.717,2.171,1.005,5.372-1.47,6.61
	l-17.82,8.919c-1.477,0.74-2.411,2.251-2.411,3.903v6.974c0,2.41,1.953,4.362,4.362,4.362h22.287
	C444.482,492.472,442.531,490.52,442.531,488.111z"/>
<path style="fill:#628FA3;" d="M470.194,77.063c-0.188,1.463-0.439,3.375-0.731,5.496c-0.178,1.358-0.366,2.79-0.543,4.263
	c-14.806,0.084-27.784-1.108-27.784-1.108s-27.648-23.395-43.363-1.337c-1.87,2.633-3.584,5.925-5.057,9.989
	c-0.961,2.654-1.881,5.36-2.79,8.129c-12.142,36.864-21.619,83.393-74.898,126.088c-57.281,45.881-146.965,61.9-139.745,155.585
	c0.345,4.441,0.721,8.61,1.128,12.518c-37.961-33.489-18.913-121.448,72.694-164.968c64.397-30.595,100.143-110.07,105.482-122.692
	c0.47-1.097,0.711-2.267,0.773-3.469c0.105-2.247,0.345-4.514,0.711-6.781c0.94-5.914,2.685-11.504,5.089-16.677
	c-1.735-6.384-2.727-14.221-2.33-23.918c1.39-34.586,34.921-21.191,47.783-13.061c0.648,0.408,1.223,0.888,1.724,1.421
	c6.363-1.014,12.999-1.045,19.717,0.031c14.827,2.361,33.876,19.257,40.312,25.328C469.786,73.228,470.455,75.151,470.194,77.063z"
	/>
<path style="fill:#3F5666;" d="M504.163,151.146c-0.136,10.783-7.732,28.181-38.484,28.473c-0.115,0.01-0.24,0.01-0.366,0.01
	c0.073-7.534-0.575-16.76-2.811-27.585c-5.611-27.073-30.104-17.366-36.227-38.734c-1.003-3.521-1.515-7.879-1.358-13.385
	c1.087-38.954,44.544-17.366,44.544-17.366c-0.92,7.074-2.1,16.551-2.267,20.313c-0.042,0.731,0.125,1.452,0.491,2.09
	c0.491,0.857,1.055,1.735,1.672,2.623c5.914,8.547,17.241,18.777,25.37,27.805C500.193,141.47,504.215,147.019,504.163,151.146z"/>
<path style="fill:#E1E9F2;" d="M494.728,135.389c-21.243-2.257-27.449,23.667-29.048,44.231c-0.115,0.01-0.24,0.01-0.366,0.01
	c0.073-7.534-0.575-16.76-2.811-27.585c-5.611-27.073-30.104-17.366-36.227-38.734c24.764,11.891,37.094,5.559,43.081-5.726
	C475.272,116.132,486.599,126.361,494.728,135.389z"/>
<path style="fill:#628FA3;" d="M269.489,498.94h81.204c6.634,0,12.012-5.383,12.012-12.025l0,0
	c0-15.446-12.507-27.967-27.936-27.967H285.96l64.853-127.884c3.141-6.194,4.778-13.042,4.778-19.99l0,0
	c0-17.094-14.968-30.317-31.911-28.19l-83.321,10.457c-154.674,15.617-72.518,178.713,9.877,122.165
	c22.874-15.698,27.627-29.058,27.627-29.058l-33.949,77.736C238.566,481.438,251.445,498.94,269.489,498.94z"/>
<g>
	<path style="fill:#476775;" d="M264.814,472.114l24.177-58.753c3.675-8.931-1.212-19.056-10.477-21.779
		c-0.069-0.02-0.137-0.041-0.204-0.061c-1.348-0.399-2.777,0.27-3.341,1.558l-31.053,71.106
		c-5.311,17.128,7.349,34.493,25.188,34.742C264.099,491.648,262.089,481.848,264.814,472.114z"/>
	<path style="fill:#476775;" d="M207.675,299.737c-92.256,28.746-51.998,129.318,8.581,127.612
		C173.407,409.336,151.886,334.71,207.675,299.737z"/>
</g>
<g>
	<path style="fill:#628FA3;" d="M143.882,327.567c-0.146,0.293-0.313,0.575-0.491,0.857l-34.283,54.951
		c-9.341-4.796-18.223-10.376-26.561-16.624l34.252-54.92c0.178-0.293,0.366-0.575,0.575-0.846
		C125.409,317.598,134.311,323.199,143.882,327.567z"/>
	<path style="fill:#628FA3;" d="M89.109,277.537c-0.303,0.146-0.616,0.293-0.93,0.418l-42.433,17.439l-17.429,7.158
		c-4.744-9.247-8.746-18.934-11.912-28.996l18.662-7.67l41.19-16.927c0.324-0.136,0.637-0.251,0.961-0.355
		C79.935,258.844,83.958,268.551,89.109,277.537z"/>
	<rect x="7.837" y="165.879" style="fill:#628FA3;" width="65.358" height="31.347"/>
	<rect x="7.837" y="70.041" style="fill:#628FA3;" width="65.358" height="31.347"/>
</g>
<g>
	<path style="fill:#476775;" d="M45.746,295.394l-17.429,7.158c-4.744-9.247-8.746-18.934-11.912-28.996l18.662-7.67
		C37.804,276.095,41.388,285.959,45.746,295.394z"/>
	<rect x="7.837" y="165.879" style="fill:#476775;" width="20.898" height="31.347"/>
	<rect x="7.837" y="70.041" style="fill:#476775;" width="20.898" height="31.347"/>
</g>
<path d="M464.944,187.468c0.137,0,0.276,0,0.413-0.001c0.343-0.002,0.669-0.018,1.007-0.023c0.677-0.012,1.356-0.021,2.02-0.047
	c0.318-0.013,0.624-0.037,0.937-0.053c0.695-0.036,1.388-0.072,2.067-0.125c0.22-0.017,0.434-0.042,0.652-0.061
	c0.761-0.066,1.516-0.137,2.257-0.225c0.134-0.016,0.263-0.036,0.397-0.052c0.813-0.1,1.615-0.211,2.404-0.338
	c0.063-0.01,0.123-0.022,0.185-0.032c0.838-0.137,1.665-0.287,2.475-0.453c0.031-0.006,0.063-0.014,0.094-0.021
	c0.82-0.169,1.628-0.353,2.42-0.554c0.044-0.01,0.086-0.023,0.129-0.033c0.755-0.192,1.499-0.396,2.229-0.616
	c0.118-0.036,0.233-0.074,0.35-0.111c0.627-0.193,1.249-0.393,1.856-0.608c0.285-0.099,0.56-0.208,0.84-0.311
	c0.412-0.154,0.825-0.305,1.228-0.468c0.629-0.253,1.239-0.518,1.839-0.791c0.037-0.017,0.075-0.032,0.112-0.049
	c15.016-6.876,21.001-19.746,21.146-31.253c0.015-1.193-0.125-2.395-0.404-3.605c-1.779-7.724-9.219-15.843-18.051-24.911
	c-0.851-0.874-1.709-1.753-2.582-2.645c-6.197-6.332-12.592-12.866-15.866-18.01c0.128-1.686,0.42-4.635,1.035-9.748
	c0.17-1.411,0.359-2.934,0.565-4.556c0-0.001,0-0.002,0-0.003c0.002-0.022,0.005-0.044,0.008-0.066
	c0.166-1.31,0.343-2.681,0.532-4.12c0.003-0.021,0-0.042,0.003-0.063c0.289-2.101,0.538-3.996,0.717-5.394
	c0.076-0.554,0.117-1.109,0.125-1.661c0.059-3.866-1.511-7.617-4.34-10.262c-22.517-21.237-37.518-26.261-44.45-27.366
	c-1.029-0.165-2.061-0.299-3.092-0.418c-0.278-0.032-0.555-0.063-0.832-0.091c-0.916-0.095-1.833-0.176-2.75-0.235
	c-0.166-0.01-0.331-0.024-0.496-0.033c-0.92-0.053-1.839-0.084-2.758-0.1c-0.398-0.008-0.795-0.01-1.193-0.011
	c-0.613-0.001-1.226,0.008-1.838,0.023c-0.79,0.019-1.578,0.053-2.365,0.098c-0.419,0.024-0.839,0.046-1.257,0.078
	c-0.654,0.049-1.305,0.111-1.956,0.179c-0.068,0.007-0.136,0.011-0.204,0.019c-3.04-1.899-10.565-6.214-19.834-8.737
	c-10.2-2.777-18.827-2.371-25.64,1.207c-6.055,3.179-13.412,10.453-14.08,27.051c-0.349,8.525,0.294,16.426,1.91,23.531
	c-0.031,0.073-0.059,0.149-0.089,0.223c-0.25,0.605-0.492,1.212-0.725,1.823c-0.172,0.453-0.337,0.91-0.5,1.369
	c-0.208,0.583-0.408,1.17-0.601,1.759c-0.142,0.435-0.282,0.87-0.416,1.308c-0.232,0.755-0.449,1.515-0.656,2.279
	c-0.073,0.271-0.147,0.541-0.217,0.813c-0.246,0.951-0.47,1.907-0.676,2.867c-0.041,0.189-0.077,0.379-0.117,0.568
	c-0.213,1.038-0.411,2.079-0.578,3.127c-0.414,2.571-0.683,5.149-0.8,7.623c-0.017,0.325-0.068,0.597-0.164,0.821
	c-0.953,2.254-3.871,8.94-8.689,18.166c-0.904,1.73-1.874,3.548-2.91,5.445c-11.749,21.486-32.024,52.837-60.208,75.895
	c-1.658,1.356-3.344,2.684-5.056,3.979c-5.138,3.886-10.52,7.48-16.145,10.683c-2.812,1.602-5.685,3.105-8.617,4.498
	c-46.889,22.274-80.31,58.586-91.553,98.713c-19.729-7.471-37.34-20.574-50.201-37.511c-2.973-3.914-5.656-7.983-8.067-12.176
	c-0.004-0.008-0.008-0.017-0.013-0.025c-4.866-8.488-8.606-17.587-11.116-27.044c-0.009-0.037-0.024-0.072-0.034-0.109
	c-2.452-9.314-3.726-18.982-3.726-28.853v-20.407v-31.347v-11.233c0-4.328-3.508-7.837-7.837-7.837s-7.837,3.509-7.837,7.837v3.396
	H15.673v-48.818h49.685v2.32c0,4.328,3.508,7.837,7.837,7.837s7.837-3.509,7.837-7.837v-10.156V70.041V45.779
	c0-22.361-18.173-40.552-40.511-40.552C18.177,5.226,0,23.418,0,45.779v24.263v31.347v64.491v31.347v20.407
	c0,19.633,2.992,38.982,8.721,57.445c0.055,0.278,0.122,0.555,0.209,0.831c3.251,10.33,7.427,20.498,12.413,30.219
	c0.099,0.193,0.219,0.368,0.332,0.55c7.088,13.706,15.826,26.62,26.117,38.423c9.006,10.329,19.011,19.596,29.805,27.713
	c0.085,0.069,0.163,0.141,0.251,0.207c0.373,0.279,0.752,0.55,1.127,0.827c0.358,0.264,0.717,0.528,1.077,0.789
	c0.779,0.567,1.563,1.128,2.351,1.684c0.362,0.255,0.723,0.51,1.087,0.762c0.809,0.562,1.622,1.117,2.438,1.667
	c0.339,0.228,0.677,0.457,1.017,0.682c0.872,0.58,1.751,1.15,2.632,1.715c0.281,0.18,0.561,0.362,0.843,0.54
	c0.975,0.618,1.954,1.224,2.938,1.823c0.191,0.117,0.381,0.235,0.574,0.35c1.104,0.668,2.215,1.323,3.331,1.968
	c0.078,0.045,0.156,0.092,0.234,0.137c2.65,1.526,5.327,2.992,8.031,4.38c0.07,0.036,0.143,0.061,0.213,0.094
	c17.788,9.12,36.97,15.478,56.897,18.722c4.301,5.26,9.328,10,15.015,13.997c22.906,16.102,51.135,15.935,75.783-0.361
	l-16.704,38.251c-0.116,0.265-0.217,0.538-0.303,0.815c-3.298,10.633-1.402,21.87,5.2,30.83
	c6.594,8.948,16.748,14.082,27.858,14.082h81.204c10.945,0,19.849-8.91,19.849-19.861c0-19.742-16.048-35.803-35.773-35.803h-36.047
	l9.295-18.329c1.957-3.86,0.414-8.577-3.445-10.534c-3.859-1.956-8.575-0.415-10.535,3.445l-15.066,29.71
	c-1.232,2.429-1.113,5.325,0.312,7.646c1.425,2.322,3.954,3.736,6.678,3.736h48.808c11.083,0,20.1,9.03,20.1,20.13
	c0,2.309-1.874,4.188-4.175,4.188H269.49c-6.076,0-11.632-2.809-15.24-7.706c-3.538-4.801-4.609-10.796-2.963-16.507l33.134-75.872
	c0.475-0.998,0.728-1.663,0.828-1.941c1.415-3.978-0.575-8.36-4.5-9.914c-3.925-1.553-8.376,0.281-10.065,4.151l-0.519,1.189
	c-1.336,2.661-7.242,12.795-24.36,24.543c-19.609,13.456-41.164,13.926-59.135,1.291c-19.576-13.759-29.665-39.485-23.988-61.168
	c3.157-12.063,13.402-31.079,46.063-41.596c0.553-0.109,1.093-0.282,1.618-0.511c8.652-2.651,18.825-4.715,30.786-5.922
	c0.063-0.006,0.125-0.014,0.188-0.022l83.32-10.457c5.842-0.729,11.721,1.081,16.135,4.977c4.425,3.905,6.963,9.532,6.963,15.437
	c0,5.688-1.359,11.375-3.932,16.446l-33.278,65.622c-1.957,3.86-0.414,8.577,3.445,10.534c3.86,1.957,8.577,0.416,10.535-3.445
	l27.656-54.538c9.218-9.724,17.754-20.268,25.487-31.488L427.92,434.08v18.287c0,2.736,0.934,5.423,2.631,7.568l2.593,3.281
	l-14.004,7.009c-4.157,2.08-6.739,6.261-6.739,10.91v6.974c0,6.726,5.47,12.198,12.195,12.198h37.338
	c6.724,0,12.194-5.472,12.194-12.198v-73.008c0-1.187-0.172-2.365-0.51-3.493l-27.788-93.014c-1.239-4.146-5.607-6.506-9.752-5.265
	c-4.147,1.239-6.506,5.605-5.266,9.752l27.643,92.527v69.025h-30.38v-1.353l15.904-7.961c3.297-1.65,5.647-4.66,6.447-8.26
	c0.801-3.601-0.052-7.326-2.34-10.218l-4.493-5.682v-17.775c0-1.63-0.32-3.219-0.949-4.718l-56.294-134.288
	c-0.024-0.055-0.045-0.112-0.07-0.166l-15.561-37.121c-1.674-3.993-6.266-5.871-10.257-4.198c-3.992,1.674-5.871,6.266-4.198,10.257
	l14.102,33.64c-2.29,3.628-4.668,7.188-7.127,10.678c-0.906-9.059-5.192-17.506-12.08-23.584
	c-7.786-6.869-18.159-10.069-28.457-8.775l-83.226,10.446c-0.239,0.024-0.471,0.052-0.709,0.077
	c9.436-6.119,19.527-11.926,29.907-17.897c17.459-10.044,35.512-20.43,51.253-33.037c49.174-39.404,62.623-82.499,73.429-117.125
	c1.372-4.398,2.669-8.552,4.013-12.633c0.983-2.996,1.87-5.581,2.712-7.903c1.169-3.226,2.542-5.958,4.071-8.112
	c1.611-2.259,5.886-8.247,16.454-5.443c-2.546,5.342-3.389,11.255-3.528,16.222c-0.731,26.188,12.74,32.538,22.578,37.173
	c7.527,3.547,12.967,6.111,15.173,16.756c1.243,6.026,2.043,11.983,2.412,17.802c-9.816-0.859-21.149-3.282-33.831-7.248
	c-1.023-0.417-1.841-0.49-2.965-0.443c-2.991,0.127-6.809,1.685-8.014,8.386c-0.256,1.421-0.526,3.366-0.867,5.827
	c-0.593,4.281-1.439,10.352-2.783,17.751c-1.848-2.837-5.401-4.25-8.806-3.232c-4.147,1.239-6.506,5.605-5.266,9.752l24.698,82.674
	c1.016,3.399,4.132,5.595,7.507,5.595c0.743,0,1.498-0.107,2.245-0.33c4.147-1.239,6.506-5.605,5.266-9.752l-16.345-54.716
	c5.211-19.255,7.528-34.971,8.81-44.155C441.207,185.478,453.973,187.468,464.944,187.468z M366.659,58.496
	c0.294-7.331,2.213-11.977,5.704-13.809c3.583-1.88,9.192-1.448,15.1,0.273c-3.744,1.815-7.362,3.955-10.801,6.449
	c-3.66,2.655-7.011,5.621-10.047,8.84C366.629,59.666,366.635,59.088,366.659,58.496z M105.395,372.426
	c-0.162-0.093-0.323-0.188-0.485-0.282c-0.95-0.55-1.895-1.108-2.835-1.675c-0.227-0.137-0.452-0.276-0.678-0.414
	c-0.868-0.53-1.733-1.066-2.593-1.61c-0.292-0.185-0.581-0.373-0.872-0.56c-0.794-0.51-1.586-1.024-2.372-1.546
	c-0.333-0.222-0.665-0.446-0.997-0.671c-0.494-0.333-0.984-0.671-1.475-1.008l26.338-42.231c4.262,3.044,8.699,5.82,13.284,8.312
	l-26.345,42.227C106.04,372.788,105.715,372.61,105.395,372.426z M15.673,217.633v-12.57h49.685v12.57
	c0,8.918,0.903,17.693,2.669,26.236l-46.476,19.1C17.684,248.277,15.673,233.049,15.673,217.633z M26.223,277.993l45.962-18.889
	c1.685,4.943,3.679,9.781,5.971,14.496l-45.979,18.892C29.979,287.748,27.994,282.91,26.223,277.993z M65.358,173.716v15.673H15.673
	v-15.673H65.358z M15.673,93.551V77.878h49.685v15.673H15.673z M40.521,20.9c13.694,0,24.837,11.161,24.837,24.879v16.426H15.673
	V45.779C15.673,32.06,26.82,20.9,40.521,20.9z M59.607,334.801c-7.693-8.822-14.438-18.321-20.197-28.335l46.515-19.112
	c1.756,2.707,3.608,5.369,5.58,7.965c4.696,6.184,9.965,11.902,15.677,17.123l-26.65,42.73
	C73.062,348.997,66.055,342.196,59.607,334.801z M120.381,380.111l26.656-42.726c0.888,0.35,1.784,0.681,2.679,1.011
	c-0.928,2.401-1.646,4.686-2.2,6.802c-3.946,15.074-2.249,31.236,4.011,45.717C140.805,388.288,130.381,384.662,120.381,380.111z
	 M391.382,79.839c-2.355,3.315-4.385,7.304-6.036,11.86c-0.895,2.474-1.834,5.206-2.865,8.346
	c-1.379,4.191-2.694,8.402-4.086,12.861c-10.701,34.288-22.83,73.152-68.267,109.562c-14.8,11.853-32.323,21.933-49.268,31.682
	c-20.126,11.579-40.906,23.55-57.539,38.699c-9.462,3.09-17.371,6.845-23.988,10.982c11.414-20.677,32.877-45.909,73.136-65.033
	c28.382-13.484,54.607-37.263,77.949-70.676c18.072-25.87,28.593-49.435,31.371-56.005c0.814-1.899,1.284-3.969,1.4-6.191
	c0.09-1.925,0.298-3.911,0.622-5.917c0.002-0.011,0.004-0.022,0.006-0.033c0.128-0.799,0.278-1.591,0.439-2.379
	c0.044-0.212,0.089-0.423,0.135-0.634c0.14-0.647,0.293-1.289,0.455-1.928c0.044-0.17,0.083-0.343,0.129-0.513
	c0.195-0.739,0.408-1.47,0.632-2.197c0.088-0.284,0.183-0.566,0.276-0.85c0.15-0.46,0.306-0.916,0.468-1.371
	c0.118-0.33,0.234-0.66,0.358-0.988c0.186-0.493,0.383-0.981,0.584-1.468c0.207-0.502,0.422-1,0.644-1.496
	c3.89-8.713,10-16.3,17.929-22.052c7.16-5.193,15.28-8.504,23.769-9.825c0.611-0.097,1.224-0.18,1.838-0.255
	c0.231-0.028,0.463-0.053,0.695-0.077c0.514-0.056,1.029-0.11,1.545-0.152c0.445-0.036,0.892-0.059,1.339-0.083
	c0.483-0.027,0.965-0.05,1.448-0.065c0.638-0.018,1.277-0.029,1.917-0.024c0.284,0.002,0.568,0.011,0.854,0.019
	c0.561,0.013,1.122,0.031,1.684,0.062c0.288,0.015,0.577,0.032,0.864,0.053c0.586,0.041,1.171,0.091,1.758,0.15
	c0.252,0.025,0.504,0.047,0.755,0.076c0.83,0.095,1.66,0.204,2.49,0.336c7.461,1.188,17.608,7.67,26.763,15.072
	c-6.72-1.062-14.193-0.994-20.769,1.982C415.867,63.468,400.93,66.441,391.382,79.839z M446.34,122.7
	c-9.052-4.266-14.039-6.615-13.593-22.557c0.201-7.191,2.065-11.899,5.538-13.994c2.072-1.25,4.721-1.738,7.572-1.738
	c5.077,0,10.801,1.545,15.076,3.078c-0.814,6.527-1.299,11.003-1.49,13.723c-0.014,0.194-0.025,0.371-0.037,0.548
	c-0.001,0.029-0.003,0.057-0.005,0.087c-0.014,0.229-0.03,0.47-0.04,0.67c-0.002,0.052,0.005,0.103,0.004,0.156
	c-0.018,0.498-0.008,0.994,0.037,1.486c0.002,0.018,0.005,0.034,0.006,0.052c0.104,1.08,0.357,2.14,0.758,3.151
	c0.003,0.008,0.008,0.017,0.011,0.026c0.188,0.47,0.409,0.929,0.659,1.376c0.019,0.033,0.03,0.07,0.049,0.103
	c4.033,7.016,11.575,14.722,18.869,22.173c0.176,0.18,0.366,0.374,0.549,0.56c6.043,6.176,15.5,15.931,16.021,19.526
	c0,0.015-0.001,0.032-0.001,0.048c-0.048,2.31-0.704,7.896-5.5,12.637c-3.988,3.943-10.094,6.479-17.876,7.487
	c-0.389-6.823-1.314-13.801-2.768-20.838C466.385,132.146,454.799,126.686,446.34,122.7z"/>
<circle cx="449.306" cy="100.792" r="8.17"/>
<g>
</g>
<g>
</g>
<g>
</g>
<g>
</g>
<g>
</g>
<g>
</g>
<g>
</g>
<g>
</g>
<g>
</g>
<g>
</g>
<g>
</g>
<g>
</g>
<g>
</g>
<g>
</g>
<g>
</g>
</svg>
