<svg id="Capa_1" enable-background="new 0 0 512 512" height="512" viewBox="0 0 512 512" width="512" xmlns="http://www.w3.org/2000/svg"><g><path d="m496 0h-160c-8.284 0-15 6.716-15 15v31h190v-31c0-8.284-6.716-15-15-15z"/><path d="m241 228h-145c-8.284 0-15 6.716-15 15v31h160z"/><path d="m161 304h-145c-8.284 0-15 6.716-15 15v31h160z"/><path d="m321 152h-145c-8.284 0-15 6.716-15 15v31h160z"/><path d="m401 76h-145c-8.284 0-15 6.716-15 15v31h160z"/><path d="m431 137c0 8.284-6.716 15-15 15h-65v61c0 8.284-6.716 15-15 15h-65v61c0 8.284-6.716 15-15 15h-65v61c0 8.284-6.716 15-15 15h-175v117c0 8.284 6.716 15 15 15h160c3.142 0 6.203-.986 8.755-2.819l320-230c3.921-2.819 6.245-7.352 6.245-12.181v-191h-80z"/></g></svg>