<svg id="Capa_1" enable-background="new 0 0 512 512" height="512" viewBox="0 0 512 512" width="512" xmlns="http://www.w3.org/2000/svg"><g><path d="m385.266 181.12c2.564 12.615 3.931 25.66 3.931 39.02 0 13.081-1.298 25.863-3.757 38.231 26.003 20.049 42.759 51.504 42.759 86.878 0 60.555-49.089 109.644-109.644 109.644-14.151 0-26.831-2.581-37.958-7.307v.555c-41.847-15.443-71.686-55.682-71.686-102.892 0-42.883 24.622-80.01 60.497-98.03 3.028-8.467 4.681-17.583 4.681-27.079 0-11.93-2.623-23.252-7.297-33.446-66.753 21.778-114.988 84.531-114.988 158.555 0 91.815 74.208 166.29 165.918 166.74v.001c.278.001.555.009.833.009 92.094 0 166.751-74.657 166.751-166.751-.001-67.839-41.415-133.988-100.04-164.128z"/><path d="m353.779 108.003s12.616 1.906 14.697 1.906c14.782 0 28.717-8.498 35.265-22.096l9.284-19.28-68.53-68.533-19.309 9.298c-15.489 7.459-24.368 24.517-21.592 41.483l1.41 8.615c18.971 13.209 35.502 29.684 48.775 48.607z"/><path d="m126.559 307.017c-26.002-20.049-42.758-51.503-42.758-86.876 0-60.555 49.089-109.644 109.644-109.644 7.899 0 15.601.843 23.026 2.43 25.829 5.521 48.284 20.136 63.856 40.335.09-.018.179-.038.269-.056v.407c14.106 18.451 22.492 41.508 22.492 66.528 0 42.079-23.708 78.615-58.492 96.997-.664.351-1.331.696-2.002 1.033-3.029 8.467-4.684 17.583-4.684 27.079 0 11.926 2.613 23.25 7.281 33.444 66.76-21.774 115.005-84.524 115.005-158.553 0-84.28-62.529-153.944-143.724-165.161-7.528-1.04-15.212-1.59-23.026-1.59-92.094 0-166.751 74.657-166.751 166.751 0 67.564 40.184 125.742 97.956 151.941-1.208-8.775-1.847-17.73-1.847-26.832 0-13.081 1.296-25.864 3.755-38.233z"/></g></svg>